# xmcd
#
# Track frame offsets: 
#        183
#        20303
#        48495
#        69605
#        111353
#        131403
#        150360
#        176565
#        207848
#        233445
#
# Disc length: 3329 seconds
#
# Revision: 3
# Processed by: cddbd v1.5.2PL0 Copyright (c) Steve Scherf et al.
# Submitted via: ExactAudioCopyFreeDBPlugin 1.0
#
DISCID=7a0cff0a
DTITLE=Larry Garner - Double Dues
DYEAR=1994
DGENRE=Blues
TTITLE0=Scared of You
TTITLE1=No Free Rides
TTITLE2=Buster
TTITLE3=Shut it Down
TTITLE4=Dreaming Again
TTITLE5=The Taxman
TTITLE6=Broke Bluesman
TTITLE7=Tale Spreaders
TTITLE8=California Sister
TTITLE9=Past 23
EXTD=
EXTT0=
EXTT1=
EXTT2=
EXTT3=
EXTT4=
EXTT5=
EXTT6=
EXTT7=
EXTT8=
EXTT9=
PLAYORDER=
